<?xml version="1.0" standalone="no"?><svg xmlns="http://www.w3.org/2000/svg" viewBox="0 0 1440 320"><path fill="#000000 " fill-opacity="1" d="M0,160L40,138.7C80,117,160,75,240,101.3C320,128,400,224,480,234.7C560,245,640,171,720,133.3C800,96,880,96,960,117.3C1040,139,1120,181,1200,192C1280,203,1360,181,1400,170.7L1440,160L1440,320L1400,320C1360,320,1280,320,1200,320C1120,320,1040,320,960,320C880,320,800,320,720,320C640,320,560,320,480,320C400,320,320,320,240,320C160,320,80,320,40,320L0,320Z"></path></svg>