<svg id="visual" viewBox="0 0 900 600" width="900" height="600" xmlns="http://www.w3.org/2000/svg" xmlns:xlink="http://www.w3.org/1999/xlink" version="1.1"><rect x="0" y="0" width="900" height="600" fill="#000000"></rect><path d="M0 556L25 551.3C50 546.7 100 537.3 150 531.8C200 526.3 250 524.7 300 528.8C350 533 400 543 450 549.7C500 556.3 550 559.7 600 554C650 548.3 700 533.7 750 531.2C800 528.7 850 538.3 875 543.2L900 548L900 601L875 601C850 601 800 601 750 601C700 601 650 601 600 601C550 601 500 601 450 601C400 601 350 601 300 601C250 601 200 601 150 601C100 601 50 601 25 601L0 601Z" fill="#fdb1fd" stroke-linecap="round" stroke-linejoin="miter"></path></svg>