<!DOCTYPE svg PUBLIC "-//W3C//DTD SVG 1.1//EN" "http://www.w3.org/Graphics/SVG/1.1/DTD/svg11.dtd">
<!-- Uploaded to: SVG Repo, www.svgrepo.com, Transformed by: SVG Repo Mixer Tools -->
<svg fill="#d73cb6" width="800px" height="800px" viewBox="0 0 24 24" id="world" data-name="Flat Line" xmlns="http://www.w3.org/2000/svg" class="icon flat-line">
<g id="SVGRepo_bgCarrier" stroke-width="0"/>
<g id="SVGRepo_tracerCarrier" stroke-linecap="round" stroke-linejoin="round"/>
<g id="SVGRepo_iconCarrier">
<ellipse id="secondary" cx="12" cy="12" rx="3" ry="9" style="fill: #d73cb6; stroke-width: 2;"/>
<path id="primary" d="M21,12a9,9,0,1,1-9-9A9,9,0,0,1,21,12ZM12,3c-1.66,0-3,4-3,9s1.34,9,3,9,3-4,3-9S13.66,3,12,3Z" style="fill: none; stroke: #ffffff; stroke-linecap: round; stroke-linejoin: round; stroke-width: 2;"/>
<path id="primary-2" data-name="primary" d="M19.2,17.4a9.7,9.7,0,0,0-4.42-2.1,13,13,0,0,0-5.56,0A9.7,9.7,0,0,0,4.8,17.4" style="fill: none; stroke: #ffffff; stroke-linecap: round; stroke-linejoin: round; stroke-width: 2;"/>
<path id="primary-3" data-name="primary" d="M19.2,6.6a9.7,9.7,0,0,1-4.42,2.1A12.53,12.53,0,0,1,12,9a12.53,12.53,0,0,1-2.78-.3A9.7,9.7,0,0,1,4.8,6.6" style="fill: none; stroke: #ffffff; stroke-linecap: round; stroke-linejoin: round; stroke-width: 2;"/>
</g>
</svg>