<?xml version="1.0" standalone="no"?>
<!DOCTYPE svg PUBLIC "-//W3C//DTD SVG 20010904//EN"
 "http://www.w3.org/TR/2001/REC-SVG-20010904/DTD/svg10.dtd">
<svg version="1.0" xmlns="http://www.w3.org/2000/svg"
 width="739.000000pt" height="240.000000pt" viewBox="0 0 739.000000 240.000000"
 preserveAspectRatio="xMidYMid meet">

<g transform="translate(0.000000,240.000000) scale(0.100000,-0.100000)"
fill="#000000" stroke="none">
<path d="M903 1682 c-167 -59 -247 -243 -175 -405 53 -120 201 -190 350 -166
59 9 289 98 429 166 143 69 182 125 171 244 -6 63 -48 124 -103 153 -38 20
-58 21 -330 23 -258 3 -296 1 -342 -15z"/>
<path d="M3716 1684 c-14 -14 -16 -71 -16 -475 0 -446 1 -460 20 -479 24 -24
67 -26 97 -5 21 15 22 23 25 238 3 208 4 225 25 264 13 23 39 54 60 70 32 25
45 28 109 28 82 0 114 -16 149 -76 18 -31 20 -55 23 -269 3 -224 4 -236 23
-253 26 -21 67 -22 97 -1 22 15 22 19 22 244 0 256 -8 309 -53 378 -47 70
-108 97 -217 97 -76 0 -91 -3 -139 -30 -29 -16 -60 -40 -68 -52 -9 -13 -19
-23 -24 -23 -5 0 -9 76 -9 168 0 117 -4 172 -12 180 -18 18 -94 15 -112 -4z"/>
<path d="M2276 1434 c-97 -30 -168 -94 -215 -194 -23 -49 -26 -67 -26 -165 0
-100 3 -116 28 -171 35 -76 94 -135 172 -171 52 -24 72 -28 155 -28 88 0 101
3 162 33 75 37 129 92 154 158 24 62 16 74 -50 74 -48 0 -57 -3 -73 -26 -64
-91 -114 -123 -189 -124 -87 0 -152 38 -191 113 -24 45 -27 64 -28 142 0 78 4
98 26 140 15 30 42 62 68 80 39 27 50 30 120 30 66 0 83 -4 114 -25 20 -14 48
-44 63 -68 29 -46 49 -55 110 -50 33 3 39 7 42 28 4 37 -56 129 -112 171 -85
65 -221 86 -330 53z"/>
<path d="M3086 1434 c-101 -32 -189 -113 -227 -213 -38 -98 -28 -263 19 -321
16 -20 21 -21 43 -10 64 33 68 43 62 159 -5 103 -4 108 24 161 18 34 45 66 72
85 39 27 50 30 120 30 68 0 83 -3 119 -27 22 -15 54 -49 69 -75 26 -44 28 -56
28 -148 0 -92 -2 -104 -28 -148 -38 -65 -90 -97 -167 -104 -54 -5 -67 -3 -126
28 l-66 33 -37 -21 c-28 -16 -36 -27 -36 -49 0 -24 9 -34 52 -60 146 -87 346
-62 459 58 183 196 104 542 -143 618 -76 23 -167 25 -237 4z"/>
<path d="M4721 1429 c-91 -30 -178 -116 -209 -208 -49 -144 -21 -307 69 -405
72 -79 147 -110 264 -111 127 0 183 21 261 99 70 71 92 117 67 142 -22 21
-103 14 -118 -11 -55 -95 -150 -137 -257 -114 -83 18 -149 93 -164 188 l-7 41
275 0 c316 0 305 -3 295 83 -9 77 -32 136 -75 192 -82 109 -252 153 -401 104z
m238 -122 c45 -30 80 -82 88 -132 l6 -35 -212 0 c-116 0 -211 2 -211 4 0 2 7
22 15 45 22 64 50 97 108 126 67 34 147 31 206 -8z"/>
<path d="M5750 1433 c-26 -10 -63 -35 -91 -64 -26 -26 -49 -45 -53 -42 -3 4
-6 23 -6 44 0 63 -14 69 -155 69 -137 0 -155 -7 -155 -60 0 -45 23 -60 94 -60
35 0 67 -5 74 -12 8 -8 12 -49 12 -118 0 -69 4 -110 12 -118 16 -16 103 -15
115 1 5 6 15 37 22 68 24 111 87 165 209 176 74 6 92 19 92 66 0 53 -15 67
-73 66 -29 0 -72 -8 -97 -16z"/>
<path d="M6233 1435 c-105 -32 -186 -106 -225 -204 -17 -45 -22 -77 -22 -156
0 -129 25 -197 98 -271 152 -151 437 -131 555 39 41 61 48 92 23 106 -47 25
-78 14 -145 -53 -53 -53 -71 -65 -114 -74 -141 -31 -262 55 -275 193 l-3 30
280 5 280 5 3 48 c6 96 -41 204 -119 271 -78 66 -231 94 -336 61z m185 -111
c66 -27 112 -82 127 -151 l7 -33 -211 0 c-237 0 -228 -3 -192 75 47 102 168
151 269 109z"/>
<path d="M5482 988 c-7 -7 -12 -39 -12 -73 0 -34 -5 -66 -12 -73 -7 -7 -41
-12 -83 -12 -82 0 -95 -9 -95 -62 0 -32 4 -40 26 -48 14 -6 125 -10 248 -10
251 0 260 2 260 65 0 21 -6 40 -14 46 -8 5 -49 9 -90 9 -46 0 -81 5 -88 12 -7
7 -12 36 -12 66 0 78 -11 92 -68 92 -27 0 -53 -5 -60 -12z"/>
</g>
</svg>
